<?xml version="1.0" standalone="no"?>
<!DOCTYPE svg PUBLIC "-//W3C//DTD SVG 20010904//EN"
 "http://www.w3.org/TR/2001/REC-SVG-20010904/DTD/svg10.dtd">
<svg version="1.0" xmlns="http://www.w3.org/2000/svg"
 width="512.000000pt" height="512.000000pt" viewBox="0 0 512.000000 512.000000"
 preserveAspectRatio="xMidYMid meet">

<g transform="translate(0.000000,512.000000) scale(0.100000,-0.100000)"
fill="#000000" stroke="none">
<path d="M3562 4910 c-28 -12 -46 -51 -38 -83 3 -15 49 -58 118 -114 126 -101
341 -316 438 -438 162 -203 340 -518 425 -748 306 -834 202 -1752 -281 -2484
-157 -238 -373 -475 -587 -643 -65 -51 -110 -94 -114 -108 -12 -51 39 -102 89
-88 37 10 236 176 367 307 459 459 745 1046 825 1694 44 359 24 694 -65 1055
-121 494 -370 943 -723 1309 -155 160 -386 352 -420 350 -6 0 -21 -4 -34 -9z"/>
<path d="M1239 4511 l-24 -19 -5 -883 -5 -882 -404 347 c-382 329 -405 347
-439 344 -45 -4 -76 -42 -66 -82 5 -20 121 -126 438 -398 237 -204 431 -375
431 -379 0 -5 -187 -169 -415 -365 -228 -196 -424 -364 -434 -374 -44 -42 -11
-120 50 -120 38 0 13 -20 494 394 l345 296 5 -879 c5 -853 6 -880 24 -900 15
-17 29 -21 58 -19 36 3 75 38 573 522 494 479 535 522 535 552 0 31 -28 57
-500 463 l-499 430 422 363 c620 534 577 494 577 532 0 30 -38 69 -447 467
-625 607 -627 609 -662 609 -16 0 -39 -9 -52 -19z m832 -911 l148 -145 -350
-300 c-192 -165 -386 -331 -430 -368 l-79 -68 0 786 0 787 281 -273 c155 -151
348 -339 430 -419z m-281 -1571 c231 -199 420 -365 420 -368 0 -4 -123 -126
-272 -272 -150 -145 -342 -331 -425 -413 l-153 -149 0 781 c0 430 2 782 5 782
3 0 195 -163 425 -361z"/>
<path d="M3563 3868 c-24 -12 -48 -60 -40 -81 3 -7 37 -63 77 -123 82 -124
174 -307 220 -439 207 -590 121 -1268 -226 -1780 -76 -113 -86 -153 -45 -186
49 -40 87 -19 159 88 185 276 289 538 349 878 25 144 25 530 -1 670 -24 135
-59 274 -97 381 -72 209 -278 573 -335 595 -30 11 -33 11 -61 -3z"/>
<path d="M3060 3213 c-25 -32 -21 -58 19 -117 97 -141 150 -306 158 -488 11
-234 -34 -396 -166 -605 -28 -44 -32 -56 -24 -80 5 -15 21 -35 36 -43 42 -24
75 -5 129 75 177 262 225 636 123 948 -39 120 -129 289 -173 325 -28 22 -78
15 -102 -15z"/>
</g>
</svg>
