<?xml version="1.0" standalone="no"?>
<!DOCTYPE svg PUBLIC "-//W3C//DTD SVG 20010904//EN"
 "http://www.w3.org/TR/2001/REC-SVG-20010904/DTD/svg10.dtd">
<svg version="1.0" xmlns="http://www.w3.org/2000/svg"
 width="512.000000pt" height="512.000000pt" viewBox="0 0 512.000000 512.000000"
 preserveAspectRatio="xMidYMid meet">

<g transform="translate(0.000000,512.000000) scale(0.100000,-0.100000)"
fill="#000000" stroke="none">
<path d="M1122 4140 c-180 -48 -303 -167 -347 -335 -20 -77 -19 -227 1 -316 9
-38 40 -117 69 -174 29 -58 51 -105 48 -105 -2 0 -49 11 -105 25 -55 14 -109
23 -119 20 -31 -10 -59 -46 -59 -76 0 -56 23 -68 236 -125 109 -29 213 -53
230 -54 53 0 68 28 123 243 28 108 51 210 51 225 0 61 -86 96 -129 53 -11 -11
-25 -39 -31 -63 -7 -24 -20 -72 -29 -107 l-18 -65 -37 64 c-93 159 -117 334
-61 458 68 152 234 218 447 178 114 -22 250 -69 478 -168 691 -299 935 -389
1347 -492 244 -62 600 -125 701 -126 67 0 106 79 64 130 -16 20 -40 26 -188
47 -543 77 -999 215 -1669 505 -519 226 -640 266 -825 274 -84 3 -120 0 -178
-16z"/>
<path d="M1470 3222 c-27 -22 -25 -11 -96 -533 -55 -408 -57 -428 -41 -453 30
-45 103 -47 131 -3 12 19 136 871 136 936 0 32 -44 71 -78 71 -17 0 -40 -8
-52 -18z"/>
<path d="M2642 2927 c-38 -40 -29 -78 30 -134 168 -157 314 -297 317 -306 2
-6 -27 -7 -80 -3 -46 3 -221 8 -389 12 -174 3 -338 12 -382 19 -85 15 -187 60
-245 110 -53 45 -79 56 -108 49 -32 -8 -65 -49 -65 -82 0 -60 176 -178 330
-222 66 -19 115 -22 405 -30 847 -23 1080 -31 1215 -40 390 -27 626 -73 785
-153 149 -75 278 -188 321 -282 23 -49 25 -66 23 -153 -2 -53 1 -114 6 -136 6
-29 5 -40 -6 -47 -8 -5 -71 -9 -140 -9 l-127 0 -4 98 c-3 83 -8 107 -35 165
-44 93 -118 169 -212 215 -73 36 -77 37 -190 37 -113 0 -118 -1 -192 -36 -165
-79 -273 -260 -256 -431 l4 -48 -1108 0 -1109 0 0 68 c0 131 -47 239 -142 327
-143 132 -326 158 -505 70 -143 -71 -242 -227 -243 -384 l0 -44 -74 6 c-133
10 -177 48 -221 192 -55 183 -56 268 -4 432 56 174 75 199 189 237 86 28 348
91 590 142 140 29 168 38 187 60 29 31 29 64 2 98 -28 35 -60 34 -261 -9 -560
-122 -679 -161 -754 -249 -38 -44 -104 -205 -136 -331 -51 -200 30 -530 159
-646 65 -57 128 -78 261 -86 l103 -6 33 -52 c90 -140 272 -222 436 -196 101
16 199 70 267 146 l58 65 1165 0 1165 -1 33 -45 c63 -85 169 -146 288 -164
142 -22 289 33 393 147 l58 63 167 0 c186 0 209 5 274 65 55 49 67 88 51 162
-7 32 -11 97 -10 146 3 107 -14 171 -68 254 -52 81 -136 162 -238 230 -246
163 -561 228 -1214 251 l-207 7 -201 197 c-110 109 -224 215 -252 238 -60 48
-103 53 -137 17z m-1523 -1084 c210 -108 200 -411 -18 -511 -186 -85 -402 56
-401 262 2 215 226 348 419 249z m3096 2 c101 -49 155 -140 155 -261 0 -51 -6
-74 -32 -125 -94 -180 -331 -207 -467 -53 -165 188 -17 487 232 470 36 -3 79
-14 112 -31z"/>
</g>
</svg>
