<?xml version="1.0" standalone="no"?>
<!DOCTYPE svg PUBLIC "-//W3C//DTD SVG 20010904//EN"
 "http://www.w3.org/TR/2001/REC-SVG-20010904/DTD/svg10.dtd">
<svg version="1.0" xmlns="http://www.w3.org/2000/svg"
 width="512.000000pt" height="512.000000pt" viewBox="0 0 512.000000 512.000000"
 preserveAspectRatio="xMidYMid meet">

<g transform="translate(0.000000,512.000000) scale(0.100000,-0.100000)"
fill="#000000" stroke="none">
<path d="M1634 5101 c-23 -10 -52 -34 -65 -52 -22 -32 -24 -43 -24 -159 0
-132 8 -161 68 -242 53 -72 182 -128 294 -128 l53 0 0 -210 0 -209 -732 -3
c-676 -3 -737 -5 -788 -22 -221 -73 -382 -243 -425 -451 -12 -60 -15 -294 -15
-1581 0 -1472 1 -1513 20 -1588 29 -113 73 -190 160 -276 86 -87 163 -131 276
-160 76 -20 118 -20 2104 -20 1970 0 2029 1 2102 19 118 30 193 73 278 160 87
87 132 165 160 277 19 75 20 116 20 1588 0 1674 3 1586 -66 1723 -70 140 -193
244 -351 300 l-78 28 -732 3 -733 3 0 209 0 210 53 0 c112 0 241 56 294 128
60 81 68 110 68 242 0 116 -2 127 -24 159 -13 18 -42 42 -65 52 -39 18 -84 19
-926 19 -842 0 -887 -1 -926 -19z m1776 -216 c0 -37 -6 -78 -14 -93 -22 -42
-67 -79 -111 -91 -57 -16 -1409 -15 -1456 0 -40 14 -85 53 -105 91 -8 15 -14
56 -14 93 l0 65 850 0 850 0 0 -65z m-420 -575 l0 -210 -430 0 -430 0 0 210 0
210 430 0 430 0 0 -210z m1585 -390 c132 -19 248 -94 312 -201 67 -111 63 -18
63 -1669 0 -1613 2 -1548 -51 -1652 -29 -58 -110 -140 -167 -171 -111 -60 21
-57 -2172 -57 -2167 0 -2057 -3 -2162 51 -58 29 -140 110 -171 167 -60 110
-57 28 -57 1662 0 1651 -4 1558 63 1669 62 103 188 186 306 201 90 12 3955 11
4036 0z"/>
<path d="M482 3724 c-29 -14 -66 -42 -82 -62 -63 -76 -60 -9 -60 -1442 0
-1481 -6 -1375 80 -1460 86 -87 -103 -80 2140 -80 2243 0 2054 -7 2140 80 86
85 80 -21 80 1460 0 1433 3 1366 -60 1442 -16 20 -53 48 -82 62 l-52 26 -2026
0 -2026 0 -52 -26z m1425 -151 c-2 -5 -291 -619 -642 -1366 -518 -1102 -642
-1357 -657 -1357 -32 0 -78 30 -88 56 -6 16 -10 518 -10 1315 0 1119 2 1294
15 1319 8 15 20 30 27 33 21 9 1360 8 1355 0z m1754 -1356 c351 -747 639
-1360 639 -1363 0 -2 -783 -4 -1740 -4 -957 0 -1740 2 -1740 5 0 3 273 585
606 1293 334 708 622 1320 640 1360 l34 72 461 -2 461 -3 639 -1358z m904
1357 c46 -18 45 21 45 -1353 0 -797 -4 -1299 -10 -1315 -10 -26 -56 -56 -88
-56 -15 0 -139 255 -657 1358 -351 746 -640 1360 -642 1365 -5 8 1328 10 1352
1z"/>
<path d="M2375 3387 c-64 -35 -83 -86 -90 -237 -6 -118 -5 -127 17 -164 14
-24 40 -49 67 -63 40 -21 57 -23 189 -23 176 0 216 13 259 87 25 43 26 47 19
166 -8 146 -29 199 -92 234 -35 21 -52 23 -184 23 -131 0 -149 -2 -185 -23z
m289 -208 c12 -119 22 -109 -104 -109 -126 0 -116 -10 -104 109 l7 61 97 0 97
0 7 -61z"/>
<path d="M2329 2707 c-75 -40 -85 -70 -104 -305 -20 -249 -13 -277 76 -331 32
-19 49 -21 251 -21 129 0 228 4 245 11 43 16 92 69 103 111 8 26 6 94 -5 235
-19 230 -30 261 -104 300 -42 22 -55 23 -231 23 -176 0 -189 -1 -231 -23z
m384 -189 c4 -24 9 -88 12 -143 3 -55 9 -112 11 -127 l6 -28 -182 0 -182 0 6
28 c2 15 8 72 11 127 3 55 8 119 12 143 l5 42 148 0 148 0 5 -42z"/>
<path d="M2285 1865 c-49 -17 -91 -62 -104 -112 -16 -60 -51 -567 -42 -601 13
-45 39 -79 80 -104 35 -23 41 -23 341 -23 300 0 306 0 341 23 41 25 67 59 80
104 10 35 -26 542 -42 603 -14 50 -64 100 -114 114 -62 17 -490 14 -540 -4z
m496 -187 c0 -18 8 -133 17 -256 10 -123 15 -225 13 -228 -6 -5 -496 -5 -502
1 -5 5 29 483 36 503 3 9 56 12 220 12 l215 0 1 -32z"/>
<path d="M1396 489 c-32 -26 -36 -84 -7 -120 l19 -24 290 -3 290 -3 26 23 c40
35 44 77 11 116 l-27 32 -288 0 c-276 0 -288 -1 -314 -21z"/>
<path d="M2245 485 c-35 -34 -33 -78 4 -116 l29 -29 282 0 282 0 29 29 c37 38
39 82 4 116 l-24 25 -291 0 -291 0 -24 -25z"/>
<path d="M3095 478 c-32 -38 -29 -81 11 -115 25 -23 29 -23 300 -23 332 0 344
3 344 95 0 24 -7 39 -26 54 -26 20 -38 21 -314 21 l-288 0 -27 -32z"/>
</g>
</svg>
