<?xml version="1.0" standalone="no"?>
<!DOCTYPE svg PUBLIC "-//W3C//DTD SVG 20010904//EN"
 "http://www.w3.org/TR/2001/REC-SVG-20010904/DTD/svg10.dtd">
<svg version="1.0" xmlns="http://www.w3.org/2000/svg"
 width="512.000000pt" height="512.000000pt" viewBox="0 0 512.000000 512.000000"
 preserveAspectRatio="xMidYMid meet">

<g transform="translate(0.000000,512.000000) scale(0.100000,-0.100000)"
fill="#000000" stroke="none">
<path d="M1079 4343 c-35 -19 -64 -43 -84 -71 l-30 -44 -3 -451 c-2 -314 0
-464 8 -490 15 -51 84 -119 136 -135 31 -9 189 -12 605 -12 l564 -1 89 -130
c127 -186 137 -186 259 -1 l88 132 562 0 c380 0 575 4 602 11 53 15 129 91
144 144 15 55 15 865 0 920 -15 53 -91 129 -144 144 -28 8 -434 11 -1391 11
l-1350 0 -55 -27z m2786 -138 l25 -24 0 -424 c0 -414 0 -425 -21 -451 l-20
-26 -592 0 c-451 0 -597 -3 -614 -13 -12 -6 -51 -56 -86 -110 l-63 -97 -70
101 c-38 56 -79 105 -92 110 -13 5 -284 9 -602 9 -318 0 -586 3 -595 6 -43 17
-45 42 -45 469 0 339 2 411 15 435 8 15 20 30 27 33 7 3 620 6 1361 6 l1348 1
24 -25z"/>
<path d="M1666 4009 l-26 -20 0 -234 0 -234 26 -20 c33 -26 55 -26 85 -2 19
15 24 30 27 85 l4 67 88 -85 c95 -93 115 -101 155 -61 36 36 31 60 -27 121
-28 30 -49 56 -47 58 2 2 19 11 37 20 44 23 62 68 62 156 0 83 -16 122 -63
150 -27 17 -51 20 -163 20 -118 0 -134 -2 -158 -21z m244 -154 l0 -35 -65 0
-65 0 0 35 0 35 65 0 65 0 0 -35z"/>
<path d="M2155 4018 c-11 -6 -23 -16 -27 -22 -4 -6 -8 -114 -8 -241 0 -126 4
-235 8 -241 17 -26 56 -34 167 -34 110 0 117 1 140 25 14 13 25 33 25 45 0 12
-11 32 -25 45 -22 22 -32 25 -105 25 l-81 0 3 33 3 32 88 5 c95 5 117 18 117
65 0 47 -22 60 -117 65 l-88 5 -3 33 -3 32 81 0 c73 0 83 3 105 25 14 13 25
33 25 45 0 12 -11 32 -25 45 -23 24 -30 25 -142 25 -69 0 -126 -5 -138 -12z"/>
<path d="M2556 4009 l-26 -20 0 -235 c0 -221 1 -235 20 -254 11 -11 31 -20 45
-20 14 0 34 9 45 20 18 18 20 33 20 157 l0 137 70 -69 69 -69 3 -69 c3 -63 6
-72 30 -90 23 -17 33 -19 55 -11 50 17 54 39 51 282 -3 222 -3 224 -27 243
-31 26 -57 24 -86 -6 -21 -20 -25 -34 -25 -87 l0 -63 -77 77 c-73 71 -109 98
-131 98 -5 0 -21 -9 -36 -21z"/>
<path d="M3033 4015 c-17 -12 -23 -26 -23 -55 0 -49 27 -70 87 -70 l43 0 0
-180 c0 -179 0 -181 25 -205 13 -14 34 -25 45 -25 12 0 32 11 45 25 25 24 25
26 25 205 l0 180 45 0 c73 0 110 61 71 116 -13 17 -29 19 -178 22 -137 2 -167
0 -185 -13z"/>
<path d="M750 3129 c-82 -34 -130 -106 -130 -194 0 -99 55 -170 153 -196 38
-11 56 -11 94 0 99 26 153 97 153 198 0 111 -78 194 -187 200 -32 1 -69 -2
-83 -8z m120 -149 c23 -23 25 -39 8 -75 -22 -48 -97 -46 -117 3 -13 31 -2 76
21 85 29 12 69 6 88 -13z"/>
<path d="M3102 2853 c-35 -30 -38 -68 -8 -97 32 -33 60 -33 91 -1 14 13 25 34
25 45 0 26 -43 70 -68 70 -11 0 -29 -8 -40 -17z"/>
<path d="M3822 2674 c-32 -22 -29 -71 7 -114 l29 -35 -29 -33 c-34 -39 -38
-83 -9 -112 28 -28 59 -25 103 11 l37 30 37 -30 c42 -35 68 -38 101 -15 33 23
30 75 -7 116 l-29 33 29 33 c37 41 40 93 7 116 -34 24 -63 19 -103 -15 l-35
-31 -35 31 c-40 34 -69 39 -103 15z"/>
<path d="M1115 2440 c-251 -16 -374 -60 -488 -174 -98 -100 -151 -204 -193
-382 -24 -101 -33 -739 -11 -769 14 -19 30 -20 242 -25 l227 -5 19 -51 c11
-29 38 -73 60 -98 l41 -46 -277 0 -276 0 -24 -25 c-14 -13 -25 -34 -25 -45 0
-11 11 -32 25 -45 l24 -25 2104 0 2104 0 21 23 c30 32 28 71 -4 96 -25 20 -39
21 -247 21 l-221 0 29 30 29 30 188 0 c189 0 189 0 214 25 l25 25 -3 303 c-3
284 -4 305 -24 348 -53 113 -142 174 -282 190 -455 52 -717 125 -1042 292
-331 170 -433 215 -580 256 -182 50 -216 52 -885 56 -346 2 -693 0 -770 -5z
m1505 -154 c171 -40 324 -100 569 -224 438 -222 700 -304 1106 -347 163 -17
201 -31 236 -89 31 -51 26 -56 -48 -56 -55 0 -71 -4 -90 -22 -28 -26 -29 -58
-4 -89 16 -20 30 -24 95 -27 l76 -4 0 -169 0 -169 -112 0 -113 0 0 98 c0 85
-3 104 -28 158 -72 156 -254 254 -419 225 -119 -21 -223 -93 -283 -196 -34
-56 -57 -172 -49 -236 l7 -49 -949 0 -949 0 0 98 c0 84 -4 105 -27 154 -74
160 -255 258 -420 229 -158 -28 -283 -141 -321 -291 l-14 -55 -167 -3 -166 -2
0 44 c0 50 -15 43 155 76 149 29 159 34 194 94 73 128 203 196 374 196 229 0
430 -164 453 -371 12 -108 -72 -99 891 -99 l834 0 23 23 c16 16 25 40 29 77
15 127 119 266 241 324 39 19 57 33 64 55 13 37 -4 72 -41 86 -24 8 -39 4 -94
-25 -131 -67 -244 -200 -284 -332 l-21 -68 -753 0 -752 0 -23 71 c-63 195
-233 341 -449 385 -227 45 -474 -43 -584 -208 l-36 -55 -88 -17 c-48 -10 -98
-20 -110 -23 -23 -5 -23 -4 -23 91 l0 96 80 0 c90 0 120 17 120 67 0 49 -24
63 -113 63 l-80 0 7 57 c25 213 157 392 326 444 108 32 233 37 965 35 614 -3
698 -5 765 -20z m-1258 -862 c105 -35 172 -131 172 -244 -1 -130 -96 -238
-226 -256 -65 -9 -149 18 -200 64 -208 187 -11 527 254 436z m2705 -12 c78
-40 143 -146 143 -232 0 -133 -127 -260 -260 -260 -86 0 -180 57 -228 138 -23
40 -27 58 -27 122 0 83 15 122 69 178 31 34 70 58 116 73 42 14 142 3 187 -19z
m-412 -492 l29 -30 -1068 0 -1068 0 24 29 23 30 1016 0 1015 1 29 -30z"/>
<path d="M1750 2250 c-417 -25 -815 -63 -835 -80 -46 -38 -38 -134 17 -195
155 -177 859 -265 2121 -265 l508 0 25 26 c20 19 24 31 19 52 -3 15 -12 32
-18 38 -7 7 -196 96 -422 199 -520 237 -475 226 -930 230 -187 2 -405 -1 -485
-5z m530 -255 l0 -135 -59 0 c-108 0 -551 39 -628 56 -22 4 -23 9 -23 93 l0
89 83 7 c86 7 404 21 545 23 l82 2 0 -135z m376 102 c27 -7 167 -67 310 -132
l261 -120 -261 -3 c-143 -2 -325 0 -403 3 l-143 7 0 136 0 135 93 -7 c51 -3
115 -12 143 -19z m-1226 -82 c0 -41 -3 -75 -7 -75 -29 0 -240 55 -295 76 -76
29 -93 44 -51 45 15 0 87 6 158 14 72 7 145 13 163 14 l32 1 0 -75z"/>
<path d="M1217 1356 c-73 -27 -127 -102 -127 -176 0 -49 32 -113 71 -143 126
-95 299 -13 299 142 0 131 -124 221 -243 177z m95 -143 c22 -20 23 -41 1 -65
-31 -34 -83 -12 -83 36 0 44 47 61 82 29z"/>
<path d="M3885 1356 c-115 -43 -157 -185 -85 -284 103 -142 334 -68 334 108 0
128 -130 219 -249 176z m99 -142 c21 -20 20 -43 -1 -66 -20 -22 -46 -23 -67
-2 -31 30 -9 84 34 84 10 0 26 -7 34 -16z"/>
</g>
</svg>
