<?xml version="1.0" standalone="no"?>
<!DOCTYPE svg PUBLIC "-//W3C//DTD SVG 20010904//EN"
 "http://www.w3.org/TR/2001/REC-SVG-20010904/DTD/svg10.dtd">
<svg version="1.0" xmlns="http://www.w3.org/2000/svg"
 width="512.000000pt" height="512.000000pt" viewBox="0 0 512.000000 512.000000"
 preserveAspectRatio="xMidYMid meet">

<g transform="translate(0.000000,512.000000) scale(0.100000,-0.100000)"
fill="#000000" stroke="none">
<path d="M910 4440 c-16 -16 -20 -33 -20 -93 0 -89 16 -117 64 -117 54 0 71
29 71 117 0 67 -3 77 -24 94 -30 25 -66 24 -91 -1z"/>
<path d="M2160 4323 c-84 -45 -102 -79 -166 -323 -75 -284 -74 -328 8 -407 48
-46 76 -53 204 -53 l114 0 0 -105 0 -105 -114 0 c-62 0 -128 -5 -147 -12 -52
-17 -104 -58 -138 -108 -29 -42 -42 -100 -196 -860 -90 -448 -167 -825 -170
-837 -5 -20 -11 -21 -137 -25 -123 -3 -137 -5 -178 -30 -57 -33 -94 -95 -94
-158 0 -48 129 -427 165 -487 28 -45 93 -101 147 -126 l47 -22 1095 -3 c1217
-3 1167 -6 1262 63 72 53 100 105 178 326 90 257 93 295 21 372 -48 53 -76 61
-220 67 l-135 5 -166 825 c-110 543 -174 839 -188 865 -27 53 -76 99 -132 124
-37 17 -66 21 -162 21 l-118 0 0 105 0 105 115 0 c128 0 165 11 219 69 32 34
57 112 49 157 -3 16 -30 123 -59 237 -55 210 -74 255 -127 297 -62 49 -69 50
-511 50 l-414 0 -52 -27z m895 -134 c22 -21 37 -66 81 -235 29 -115 54 -215
54 -222 0 -7 -11 -24 -25 -37 l-24 -25 -511 0 -511 0 -24 25 c-14 13 -25 30
-25 37 0 7 23 105 52 216 51 203 69 245 112 262 11 5 195 8 408 7 l388 -2 25
-26z m-255 -754 l0 -105 -170 0 -170 0 0 105 0 105 170 0 170 0 0 -105z m-560
-262 c0 -10 -14 -157 -30 -326 l-30 -308 -63 -113 c-48 -88 -70 -118 -97 -133
-19 -11 -69 -39 -111 -61 l-77 -42 93 458 c51 252 98 468 104 480 25 46 59 62
137 62 64 0 74 -2 74 -17z m640 5 c0 -6 10 -105 21 -220 17 -162 19 -214 10
-236 -8 -18 -32 -38 -76 -61 -92 -47 -115 -67 -115 -100 0 -39 16 -55 102
-101 71 -38 80 -46 111 -104 l33 -63 37 -384 c21 -211 37 -392 37 -401 0 -17
-26 -18 -411 -18 l-410 0 3 52 3 53 39 6 c47 8 43 2 131 167 l70 130 144 78
c152 84 172 103 155 151 -7 21 -42 45 -154 107 l-145 81 -72 132 -72 133 29
297 c16 164 30 301 30 306 0 4 113 7 250 7 185 0 250 -3 250 -12z m314 -9 c14
-11 31 -29 36 -40 8 -14 110 -495 110 -517 0 -2 -36 17 -81 41 -78 43 -82 47
-123 123 -24 44 -53 84 -65 89 -26 12 -27 17 -41 166 -15 176 -22 159 64 159
59 0 78 -4 100 -21z m-130 -543 c10 -18 34 -41 54 -51 l37 -17 -36 -19 c-20
-10 -47 -35 -59 -56 l-22 -38 -17 34 c-10 18 -35 44 -55 56 l-37 22 36 22 c20
11 44 34 53 51 9 16 19 30 22 30 3 0 14 -15 24 -34z m396 -602 c55 -274 103
-507 106 -516 5 -17 -9 -18 -190 -18 -180 0 -196 1 -197 18 0 9 -17 187 -37
395 l-38 378 39 69 c36 65 43 72 119 112 44 24 83 49 85 56 3 7 7 11 9 9 2 -2
49 -228 104 -503z m-1008 141 c48 -27 90 -53 93 -57 4 -3 -31 -27 -78 -52 -46
-25 -91 -54 -99 -63 -9 -10 -36 -55 -61 -101 l-44 -83 -25 43 c-14 24 -38 67
-53 96 -26 48 -37 57 -122 103 -52 28 -91 54 -88 58 3 3 43 26 88 51 86 48
105 69 170 190 l29 53 51 -94 c52 -93 53 -94 139 -144z m-482 -218 c73 -39 89
-53 112 -94 l27 -49 -14 -139 c-8 -77 -15 -148 -15 -157 0 -17 -16 -18 -195
-18 l-195 0 5 23 c7 28 105 519 105 525 0 2 19 -7 43 -21 23 -13 80 -45 127
-70z m1996 -618 c18 -20 18 -23 -40 -192 -80 -233 -99 -272 -149 -305 l-41
-27 -1096 -3 -1096 -2 -45 23 c-24 13 -53 37 -65 54 -19 29 -154 399 -154 424
0 7 7 21 17 31 15 17 70 18 1333 18 l1317 0 19 -21z"/>
<path d="M682 4208 c-43 -21 -42 -96 3 -116 14 -7 52 -12 84 -12 71 0 111 25
111 70 0 46 -40 70 -114 69 -33 0 -71 -5 -84 -11z"/>
<path d="M1059 4202 c-31 -26 -31 -78 0 -104 18 -13 40 -18 91 -18 83 0 113
19 113 70 0 51 -30 70 -113 70 -51 0 -73 -5 -91 -18z"/>
<path d="M906 4048 c-11 -15 -16 -46 -16 -95 0 -61 3 -75 22 -93 27 -25 59
-26 89 -1 21 17 24 27 24 94 0 60 -4 79 -19 96 -26 29 -80 28 -100 -1z"/>
<path d="M4085 3825 c-34 -33 -33 -77 1 -104 15 -12 34 -21 44 -21 10 0 29 9
44 21 36 28 36 80 0 108 -35 27 -59 26 -89 -4z"/>
<path d="M4185 3312 c-75 -36 -125 -112 -125 -190 0 -55 43 -134 91 -168 59
-40 146 -45 209 -12 136 73 148 263 23 351 -54 38 -140 46 -198 19z m138 -154
c18 -24 18 -30 7 -57 -28 -68 -130 -51 -130 22 0 68 81 91 123 35z"/>
<path d="M1216 3145 c-59 -59 10 -155 83 -114 62 35 41 121 -31 127 -23 2 -41
-3 -52 -13z"/>
<path d="M833 2216 c-156 -73 -153 -297 5 -372 53 -25 149 -16 199 19 106 73
120 221 29 311 -68 68 -146 82 -233 42z m137 -136 c29 -29 26 -74 -6 -99 -35
-27 -59 -26 -89 4 -30 30 -31 54 -4 89 25 32 70 35 99 6z"/>
</g>
</svg>
