<?xml version="1.0" standalone="no"?>
<!DOCTYPE svg PUBLIC "-//W3C//DTD SVG 20010904//EN"
 "http://www.w3.org/TR/2001/REC-SVG-20010904/DTD/svg10.dtd">
<svg version="1.0" xmlns="http://www.w3.org/2000/svg"
 width="512.000000pt" height="512.000000pt" viewBox="0 0 512.000000 512.000000"
 preserveAspectRatio="xMidYMid meet">

<g transform="translate(0.000000,512.000000) scale(0.100000,-0.100000)"
fill="#000000" stroke="none">
<path d="M1756 5104 c-94 -18 -158 -40 -246 -84 -106 -53 -178 -109 -329 -255
l-131 -128 -83 80 c-51 48 -106 91 -142 109 -55 27 -69 29 -170 29 -99 0 -116
-3 -168 -27 -74 -35 -160 -121 -195 -195 -24 -52 -27 -69 -27 -168 0 -104 2
-114 32 -175 22 -45 57 -90 112 -145 l81 -79 -149 -151 c-153 -155 -200 -218
-257 -340 -58 -125 -78 -222 -78 -375 0 -204 45 -358 154 -521 49 -74 2347
-2382 2470 -2482 83 -66 217 -136 325 -168 87 -26 302 -37 397 -20 143 25 288
88 403 176 105 80 1153 1137 1205 1214 57 85 104 189 132 292 32 117 31 336
-1 454 -28 104 -89 232 -151 314 -74 100 -2452 2469 -2524 2516 -185 119 -449
171 -660 129z m372 -174 c89 -25 157 -58 237 -115 33 -24 598 -583 1255 -1242
899 -900 1204 -1212 1229 -1255 82 -141 117 -285 107 -438 -11 -170 -61 -303
-165 -432 -79 -98 -1093 -1106 -1154 -1147 -139 -94 -274 -135 -437 -135 -138
0 -234 24 -355 87 -76 40 -117 79 -745 699 -956 943 -1772 1765 -1810 1821
-87 131 -124 257 -124 427 0 168 33 283 120 417 44 67 1050 1084 1162 1174
104 84 234 141 367 163 66 10 241 -3 313 -24z m-1378 -251 c25 -11 78 -52 118
-92 l72 -72 -167 -167 -168 -168 -73 73 c-109 107 -135 170 -112 269 10 41 24
63 64 103 28 28 67 56 86 62 57 18 130 15 180 -8z"/>
<path d="M1845 4789 c-87 -11 -171 -43 -245 -94 -83 -56 -1144 -1120 -1188
-1190 -17 -27 -43 -86 -57 -130 -53 -157 -30 -339 61 -483 24 -39 425 -446
1237 -1258 1114 -1112 1207 -1203 1272 -1236 102 -53 174 -71 280 -70 113 0
219 33 315 97 87 59 1134 1107 1184 1187 118 187 118 429 0 616 -48 77 -2361
2394 -2458 2463 -112 79 -262 116 -401 98z m190 -171 c91 -23 128 -56 701
-629 l569 -569 -803 -803 -802 -802 -574 575 c-623 625 -614 614 -635 748 -6
40 -6 84 0 125 21 132 13 123 623 735 485 486 569 567 621 592 95 47 189 56
300 28z m1966 -1895 c626 -628 606 -605 628 -741 13 -81 -1 -169 -39 -247 -25
-52 -104 -135 -597 -626 -617 -615 -595 -596 -731 -618 -81 -13 -169 1 -247
39 -52 25 -137 106 -630 600 l-570 570 800 800 c440 440 802 800 805 800 3 0
264 -260 581 -577z"/>
<path d="M1484 3920 c-113 -23 -214 -105 -266 -217 -27 -57 -32 -78 -32 -144
0 -112 35 -179 160 -304 l95 -96 -25 -30 c-32 -38 -50 -101 -41 -148 11 -62
49 -112 188 -249 166 -162 207 -185 337 -186 140 -1 172 19 421 271 243 246
254 262 254 398 0 131 -15 158 -188 333 -78 79 -155 151 -172 159 -70 38 -170
34 -228 -8 l-28 -21 -93 90 c-99 96 -159 133 -244 151 -59 12 -79 12 -138 1z
m151 -169 c22 -10 77 -57 122 -103 l83 -83 -143 -143 -143 -143 -91 94 c-100
101 -113 124 -113 194 0 147 153 245 285 184z m627 -308 c113 -114 138 -145
148 -181 6 -24 9 -51 6 -60 -2 -9 -7 -30 -11 -47 -7 -32 -353 -390 -414 -427
-47 -29 -136 -29 -182 0 -48 30 -256 242 -264 270 -4 14 -1 32 8 46 8 12 131
138 272 279 180 181 263 257 278 257 15 0 66 -44 159 -137z"/>
<path d="M3585 2308 c-22 -12 -127 -107 -233 -211 l-192 -191 -94 92 c-138
135 -231 171 -356 136 -165 -46 -298 -228 -276 -378 13 -88 51 -145 189 -283
114 -115 135 -133 163 -133 41 0 72 26 80 67 6 31 0 39 -124 166 -146 150
-165 185 -142 260 15 52 94 132 145 147 71 21 112 2 217 -99 l91 -87 -22 -31
c-27 -36 -42 -96 -34 -137 12 -62 44 -104 185 -242 162 -160 196 -178 320
-177 115 2 147 23 372 247 230 229 250 259 250 386 -1 116 -21 150 -182 314
-80 80 -154 146 -177 157 -54 25 -129 24 -180 -3z m237 -265 c205 -203 204
-209 -55 -472 -100 -101 -196 -189 -214 -197 -39 -17 -96 -18 -126 -3 -12 6
-77 66 -144 132 -92 91 -123 128 -123 147 0 19 57 81 248 272 149 149 255 248
266 248 11 0 74 -54 148 -127z"/>
<path d="M4025 5095 c-32 -31 -33 -78 -2 -109 19 -19 37 -24 112 -29 443 -32
790 -379 822 -822 5 -75 10 -93 29 -112 31 -31 78 -30 109 2 30 29 33 87 10
221 -37 214 -124 389 -270 543 -164 173 -362 279 -590 316 -137 23 -191 20
-220 -10z"/>
<path d="M4026 4777 c-33 -33 -34 -79 -3 -111 18 -18 38 -24 97 -29 278 -24
493 -239 517 -517 5 -59 11 -79 29 -97 32 -31 78 -30 111 3 25 25 26 29 19
112 -7 99 -46 223 -97 309 -46 78 -179 209 -259 256 -86 50 -202 86 -304 93
-81 7 -85 6 -110 -19z"/>
<path d="M4026 4457 c-51 -51 -17 -137 55 -137 122 0 239 -117 239 -239 0 -72
86 -106 137 -55 24 24 25 30 20 92 -9 88 -60 194 -123 251 -62 58 -155 100
-237 108 -61 5 -67 4 -91 -20z"/>
</g>
</svg>
