<?xml version="1.0" standalone="no"?>
<!DOCTYPE svg PUBLIC "-//W3C//DTD SVG 20010904//EN"
 "http://www.w3.org/TR/2001/REC-SVG-20010904/DTD/svg10.dtd">
<svg version="1.0" xmlns="http://www.w3.org/2000/svg"
 width="512.000000pt" height="512.000000pt" viewBox="0 0 512.000000 512.000000"
 preserveAspectRatio="xMidYMid meet">
<metadata>
Created by potrace 1.16, written by Peter Selinger 2001-2019
</metadata>
<g transform="translate(0.000000,512.000000) scale(0.100000,-0.100000)"
fill="#000000" stroke="none">
<path d="M515 4444 c-234 -57 -444 -269 -499 -504 -21 -86 -21 -302 0 -439 25
-168 609 -2493 645 -2566 59 -121 170 -216 296 -255 64 -20 91 -20 1603 -20
1512 0 1539 0 1603 20 80 25 173 86 227 148 61 72 94 152 139 331 44 176 44
207 2 245 -42 38 -135 25 -160 -22 -6 -10 -28 -89 -49 -175 -54 -215 -85 -263
-208 -319 l-49 -23 -1505 0 -1505 0 -55 26 c-76 36 -113 69 -144 131 -30 60
-617 2398 -635 2531 -18 129 -14 285 9 359 57 185 212 313 410 337 110 14
3719 15 3838 1 97 -11 200 -55 271 -116 58 -50 116 -142 141 -222 25 -80 27
-244 5 -379 -8 -51 -85 -373 -170 -715 -140 -560 -154 -624 -144 -655 12 -38
59 -73 97 -73 31 0 79 26 92 49 20 38 319 1262 336 1372 23 160 16 389 -15
479 -70 202 -236 369 -441 442 l-65 23 -2005 2 c-1724 1 -2013 -1 -2065 -13z"/>
<path d="M562 4029 c-108 -53 -162 -144 -162 -269 0 -125 54 -216 162 -269 52
-27 72 -31 138 -31 66 0 86 4 138 31 108 53 162 143 162 270 0 177 -123 299
-301 299 -65 0 -85 -4 -137 -31z m203 -204 c35 -34 34 -93 -1 -129 -36 -35
-95 -36 -129 -1 -35 34 -35 96 0 130 34 35 96 35 130 0z"/>
<path d="M1286 4034 l-26 -27 0 -847 0 -847 26 -27 27 -26 1247 0 1247 0 27
26 26 27 0 847 0 847 -26 27 -27 26 -1247 0 -1247 0 -27 -26z m2374 -874 l0
-700 -1100 0 -1100 0 0 700 0 700 1100 0 1100 0 0 -700z"/>
<path d="M1716 3634 l-26 -27 0 -447 0 -447 26 -27 c38 -37 110 -37 148 0 l26
27 0 173 0 174 174 0 173 0 27 26 c21 21 26 36 26 74 0 38 -5 53 -26 74 l-27
26 -173 0 -174 0 0 100 0 100 174 0 173 0 27 26 c37 38 37 110 0 148 l-27 26
-247 0 -247 0 -27 -26z"/>
<path d="M2596 3628 c-32 -33 -32 -34 -99 -428 -69 -404 -75 -457 -57 -491 13
-23 61 -49 92 -49 38 0 85 35 96 72 6 18 23 107 37 198 15 91 30 171 34 178 4
7 31 -74 62 -185 47 -171 58 -202 86 -230 27 -29 37 -33 83 -33 46 0 56 4 84
33 27 28 38 58 86 240 l54 208 37 -198 c19 -109 39 -208 43 -221 9 -28 61 -62
94 -62 31 0 79 26 92 49 5 11 10 37 10 57 0 37 -122 733 -141 806 -28 107
-187 122 -227 21 -7 -15 -32 -104 -57 -198 -25 -93 -53 -195 -61 -225 l-16
-55 -69 245 c-61 218 -72 248 -99 273 -25 22 -40 27 -81 27 -44 0 -55 -4 -83
-32z"/>
<path d="M4282 4029 c-108 -53 -162 -144 -162 -269 0 -125 54 -216 162 -269
52 -27 72 -31 138 -31 66 0 86 4 138 31 108 53 162 143 162 270 0 177 -123
299 -301 299 -65 0 -85 -4 -137 -31z m203 -204 c58 -57 15 -155 -67 -155 -54
0 -88 35 -88 90 0 30 6 47 25 65 34 35 96 35 130 0z"/>
<path d="M1086 2034 l-26 -27 0 -247 0 -247 26 -27 27 -26 247 0 247 0 27 26
26 27 0 247 0 247 -26 27 -27 26 -247 0 -247 0 -27 -26z m374 -274 l0 -100
-100 0 -100 0 0 100 0 100 100 0 100 0 0 -100z"/>
<path d="M1886 2034 l-26 -27 0 -247 0 -247 26 -27 27 -26 247 0 247 0 27 26
26 27 0 247 0 247 -26 27 -27 26 -247 0 -247 0 -27 -26z m374 -274 l0 -100
-100 0 -100 0 0 100 0 100 100 0 100 0 0 -100z"/>
<path d="M2686 2034 l-26 -27 0 -247 0 -247 26 -27 27 -26 247 0 247 0 27 26
26 27 0 247 0 247 -26 27 -27 26 -247 0 -247 0 -27 -26z m374 -274 l0 -100
-100 0 -100 0 0 100 0 100 100 0 100 0 0 -100z"/>
<path d="M3486 2034 l-26 -27 0 -247 0 -247 26 -27 27 -26 247 0 247 0 27 26
26 27 0 247 0 247 -26 27 -27 26 -247 0 -247 0 -27 -26z m374 -274 l0 -100
-100 0 -100 0 0 100 0 100 100 0 100 0 0 -100z"/>
<path d="M4543 1863 c-12 -2 -33 -16 -47 -30 -21 -20 -26 -36 -26 -73 0 -66
34 -100 100 -100 38 0 53 5 74 26 21 21 26 36 26 74 0 38 -5 53 -26 74 -15 14
-32 26 -40 26 -7 0 -18 2 -26 4 -7 2 -23 1 -35 -1z"/>
<path d="M1286 1234 c-21 -21 -26 -36 -26 -74 0 -38 5 -53 26 -74 l27 -26 177
0 177 0 27 26 c21 21 26 36 26 74 0 38 -5 53 -26 74 l-27 26 -177 0 -177 0
-27 -26z"/>
<path d="M1996 1234 c-21 -21 -26 -36 -26 -74 0 -38 5 -53 26 -74 l27 -26 177
0 177 0 27 26 c21 21 26 36 26 74 0 38 -5 53 -26 74 l-27 26 -177 0 -177 0
-27 -26z"/>
<path d="M2706 1234 c-21 -21 -26 -36 -26 -74 0 -38 5 -53 26 -74 l27 -26 182
0 182 0 27 26 c21 21 26 36 26 74 0 38 -5 53 -26 74 l-27 26 -182 0 -182 0
-27 -26z"/>
<path d="M3426 1234 c-21 -21 -26 -36 -26 -74 0 -38 5 -53 26 -74 l27 -26 177
0 177 0 27 26 c21 21 26 36 26 74 0 38 -5 53 -26 74 l-27 26 -177 0 -177 0
-27 -26z"/>
</g>
</svg>
