<?xml version="1.0" standalone="no"?>
<!DOCTYPE svg PUBLIC "-//W3C//DTD SVG 20010904//EN"
 "http://www.w3.org/TR/2001/REC-SVG-20010904/DTD/svg10.dtd">
<svg version="1.0" xmlns="http://www.w3.org/2000/svg"
 width="512.000000pt" height="512.000000pt" viewBox="0 0 512.000000 512.000000"
 preserveAspectRatio="xMidYMid meet">

<g transform="translate(0.000000,512.000000) scale(0.100000,-0.100000)"
fill="#000000" stroke="none">
<path d="M2380 4699 c-333 -42 -640 -194 -875 -434 -205 -209 -343 -470 -402
-761 -28 -139 -25 -418 6 -544 103 -418 367 -872 808 -1386 145 -169 544 -579
585 -600 34 -18 82 -18 116 0 41 21 440 431 586 601 447 522 726 1007 813
1415 25 117 25 389 0 514 -142 709 -759 1214 -1472 1205 -55 -1 -129 -5 -165
-10z m360 -234 c136 -21 230 -49 348 -105 296 -141 512 -370 632 -668 53 -133
79 -250 87 -398 11 -219 -39 -419 -172 -689 -186 -377 -485 -772 -943 -1245
l-130 -135 -57 55 c-89 87 -354 374 -454 493 -413 491 -671 948 -726 1290 -29
180 -13 371 46 552 191 579 774 942 1369 850z"/>
<path d="M2413 3785 c-246 -67 -423 -294 -425 -545 -2 -167 52 -300 167 -415
117 -117 241 -169 405 -169 161 0 287 52 401 164 234 232 232 592 -6 825 -59
58 -166 118 -251 140 -72 19 -221 19 -291 0z m271 -236 c230 -86 292 -394 114
-566 -135 -131 -341 -131 -476 0 -144 139 -139 368 11 502 26 24 71 53 100 64
71 27 179 28 251 0z"/>
<path d="M1517 1551 c-198 -87 -346 -207 -402 -326 -37 -78 -45 -180 -21 -256
67 -211 351 -390 769 -483 447 -100 948 -100 1397 0 162 37 276 76 415 144
253 123 376 281 363 467 -13 179 -164 336 -438 454 -113 49 -160 51 -200 11
-62 -63 -47 -155 32 -188 201 -87 300 -150 349 -223 49 -75 38 -130 -43 -208
-217 -212 -835 -339 -1424 -293 -406 31 -758 139 -917 281 -95 85 -110 141
-58 220 49 72 148 136 347 222 79 34 96 126 34 189 -40 40 -91 37 -203 -11z"/>
</g>
</svg>
