<?xml version="1.0" standalone="no"?>
<!DOCTYPE svg PUBLIC "-//W3C//DTD SVG 20010904//EN"
 "http://www.w3.org/TR/2001/REC-SVG-20010904/DTD/svg10.dtd">
<svg version="1.0" xmlns="http://www.w3.org/2000/svg"
 width="512.000000pt" height="512.000000pt" viewBox="0 0 512.000000 512.000000"
 preserveAspectRatio="xMidYMid meet">

<g transform="translate(0.000000,512.000000) scale(0.100000,-0.100000)"
fill="#000000" stroke="none">
<path d="M2240 4947 c-49 -16 -133 -102 -148 -153 -7 -23 -12 -67 -12 -98 l0
-56 -96 0 c-128 0 -168 -13 -229 -75 -66 -65 -75 -99 -75 -269 l0 -136 -656 0
c-486 0 -667 -3 -698 -12 -55 -16 -138 -99 -154 -154 -18 -60 -18 -3608 0
-3668 16 -55 99 -138 154 -154 32 -9 542 -12 2236 -12 2475 0 2252 -8 2331 80
24 26 49 66 55 88 17 57 17 3607 0 3664 -6 22 -31 62 -55 88 -75 83 -44 80
-795 80 l-658 0 0 136 c0 163 -10 200 -67 264 -57 63 -106 80 -235 80 l-98 0
0 56 c0 81 -18 129 -67 184 -69 77 -88 80 -417 79 -174 -1 -294 -5 -316 -12z
m615 -172 c21 -20 25 -34 25 -80 l0 -55 -320 0 -320 0 0 55 c0 46 4 60 25 80
l24 25 271 0 271 0 24 -25z m400 -320 c24 -23 25 -29 25 -160 l0 -135 -720 0
-720 0 0 135 c0 131 1 137 25 160 l24 25 671 0 671 0 24 -25z m1520 -480 l25
-24 0 -1791 0 -1791 -25 -24 -24 -25 -2191 0 -2191 0 -24 25 -25 24 0 1791 0
1791 25 24 24 25 2191 0 2191 0 24 -25z"/>
<path d="M505 3815 l-25 -24 0 -1471 0 -1471 25 -24 24 -25 2031 0 2031 0 24
25 25 24 0 1471 0 1471 -25 24 -24 25 -2031 0 -2031 0 -24 -25z m3975 -1495
l0 -1360 -1920 0 -1920 0 0 1360 0 1360 1920 0 1920 0 0 -1360z"/>
<path d="M2007 3315 c-42 -85 -77 -157 -77 -158 0 -6 140 -71 144 -66 8 9 157
311 154 314 -8 7 -128 65 -135 65 -5 0 -43 -70 -86 -155z"/>
<path d="M2955 3438 c-33 -17 -61 -32 -63 -33 -3 -3 146 -305 154 -314 4 -5
144 60 144 66 0 15 -157 313 -165 313 -5 -1 -37 -15 -70 -32z"/>
<path d="M1767 2835 c-42 -85 -77 -157 -77 -158 0 -6 140 -71 144 -66 8 9 157
311 154 314 -8 7 -128 65 -135 65 -5 0 -43 -70 -86 -155z"/>
<path d="M3195 2958 c-33 -17 -61 -32 -63 -33 -3 -3 146 -305 154 -314 4 -5
144 60 144 66 0 15 -157 313 -165 313 -5 -1 -37 -15 -70 -32z"/>
<path d="M2540 2553 c-8 -3 -23 -13 -34 -22 -26 -23 -666 -1306 -666 -1336 0
-33 42 -75 75 -75 14 0 165 70 335 155 l310 155 310 -155 c170 -85 321 -155
335 -155 33 0 75 42 75 75 0 14 -148 322 -330 684 -308 617 -331 659 -361 670
-18 6 -32 11 -33 10 -1 0 -8 -3 -16 -6z m253 -718 l227 -455 -220 110 c-121
60 -229 110 -240 110 -11 0 -119 -50 -240 -110 l-220 -110 227 455 c126 250
230 455 233 455 3 0 107 -205 233 -455z"/>
<path d="M1527 2355 c-42 -85 -77 -157 -77 -158 0 -6 140 -71 144 -66 8 9 157
311 154 314 -8 7 -128 65 -135 65 -5 0 -43 -70 -86 -155z"/>
<path d="M3435 2478 c-33 -17 -61 -32 -63 -33 -3 -3 146 -305 154 -314 4 -5
144 60 144 66 0 15 -157 313 -165 313 -5 -1 -37 -15 -70 -32z"/>
<path d="M1287 1875 c-42 -85 -77 -157 -77 -158 0 -6 140 -71 144 -66 8 9 157
311 154 314 -8 7 -128 65 -135 65 -5 0 -43 -70 -86 -155z"/>
<path d="M3675 1998 c-33 -17 -61 -32 -63 -33 -3 -3 146 -305 154 -314 3 -3
35 10 73 29 l70 33 -80 159 c-43 87 -82 158 -87 158 -4 -1 -34 -15 -67 -32z"/>
<path d="M1047 1394 c-43 -86 -77 -157 -75 -159 6 -5 128 -65 133 -65 3 0 41
71 84 158 l79 159 -64 31 c-35 18 -68 32 -72 32 -4 0 -42 -70 -85 -156z"/>
<path d="M3915 1518 c-33 -17 -61 -32 -63 -33 -3 -3 146 -305 154 -314 7 -8
134 58 134 69 0 17 -149 310 -158 310 -4 -1 -34 -15 -67 -32z"/>
<path d="M480 560 l0 -80 80 0 80 0 0 80 0 80 -80 0 -80 0 0 -80z"/>
<path d="M800 560 l0 -80 240 0 240 0 0 80 0 80 -240 0 -240 0 0 -80z"/>
<path d="M2160 560 l0 -80 80 0 80 0 0 80 0 80 -80 0 -80 0 0 -80z"/>
<path d="M2480 560 l0 -80 80 0 80 0 0 80 0 80 -80 0 -80 0 0 -80z"/>
<path d="M2800 560 l0 -80 80 0 80 0 0 80 0 80 -80 0 -80 0 0 -80z"/>
<path d="M3840 560 l0 -80 240 0 240 0 0 80 0 80 -240 0 -240 0 0 -80z"/>
<path d="M4480 560 l0 -80 80 0 80 0 0 80 0 80 -80 0 -80 0 0 -80z"/>
</g>
</svg>
