<?xml version="1.0" standalone="no"?>
<!DOCTYPE svg PUBLIC "-//W3C//DTD SVG 20010904//EN"
 "http://www.w3.org/TR/2001/REC-SVG-20010904/DTD/svg10.dtd">
<svg version="1.0" xmlns="http://www.w3.org/2000/svg"
 width="512.000000pt" height="512.000000pt" viewBox="0 0 512.000000 512.000000"
 preserveAspectRatio="xMidYMid meet">

<g transform="translate(0.000000,512.000000) scale(0.100000,-0.100000)"
fill="#000000" stroke="none">
<path d="M914 5106 c-79 -18 -170 -55 -240 -97 -110 -67 -230 -210 -274 -326
-53 -141 -51 -47 -48 -2153 l3 -1955 26 -77 c42 -122 93 -204 184 -295 68 -67
99 -89 176 -127 176 -85 342 -97 514 -38 157 54 234 120 250 212 21 121 -102
246 -223 226 -18 -3 -63 -20 -100 -38 -123 -61 -250 -39 -345 59 -21 21 -48
58 -60 83 l-22 45 0 1940 0 1940 27 51 c65 124 220 191 348 151 56 -17 3104
-1894 3152 -1941 76 -74 106 -197 73 -298 -22 -70 -58 -118 -120 -160 -27 -20
-534 -331 -1125 -693 -591 -362 -1086 -667 -1098 -679 -38 -34 -62 -90 -62
-146 0 -138 132 -233 260 -186 33 12 2108 1277 2253 1374 237 158 355 462 287
737 -33 133 -89 233 -185 330 -77 77 -135 114 -1615 1025 -844 520 -1564 960
-1600 977 -36 18 -92 40 -125 48 -85 23 -237 28 -311 11z"/>
</g>
</svg>
