<?xml version="1.0" standalone="no"?>
<!DOCTYPE svg PUBLIC "-//W3C//DTD SVG 20010904//EN"
 "http://www.w3.org/TR/2001/REC-SVG-20010904/DTD/svg10.dtd">
<svg version="1.0" xmlns="http://www.w3.org/2000/svg"
 width="512.000000pt" height="512.000000pt" viewBox="0 0 512.000000 512.000000"
 preserveAspectRatio="xMidYMid meet">

<g transform="translate(0.000000,512.000000) scale(0.100000,-0.100000)"
fill="#000000" stroke="none">
<path d="M2900 5105 c-80 -16 -200 -62 -258 -99 -24 -15 -574 -425 -1221 -910
-835 -626 -1190 -899 -1223 -937 -98 -116 -158 -239 -184 -380 -13 -67 -15
-204 -11 -901 3 -777 5 -832 25 -975 41 -287 119 -606 169 -693 55 -93 167
-175 274 -199 64 -15 4020 -15 4091 0 162 34 297 174 328 340 6 30 60 1024
121 2209 95 1845 110 2164 99 2214 -31 159 -156 290 -314 332 -73 20 -1798 19
-1896 -1z m1900 -179 c77 -41 134 -116 145 -193 3 -21 -37 -863 -90 -1870 -52
-1008 -95 -1835 -95 -1838 0 -3 -1028 -5 -2284 -5 l-2284 0 -7 42 c-3 24 -9
400 -11 836 -6 877 -7 868 57 1002 66 140 30 111 1290 1056 647 485 1193 893
1215 906 21 13 59 32 84 42 111 44 120 45 1055 43 847 -2 892 -3 925 -21z
m-50 -4123 c0 -27 -3 -65 -6 -86 l-7 -37 -2251 2 -2251 3 -12 70 c-6 39 -12
76 -12 83 -1 9 459 12 2269 12 l2270 0 0 -47z m-20 -346 c0 -115 -53 -212
-144 -260 l-41 -22 -2025 0 -2025 0 -41 22 c-71 38 -117 101 -147 200 -15 48
-27 94 -27 101 0 9 452 12 2225 12 l2225 0 0 -53z"/>
<path d="M2945 4766 c-27 -7 -70 -23 -94 -35 -23 -12 -437 -318 -920 -680
-482 -361 -900 -670 -930 -687 -30 -16 -77 -51 -105 -78 -27 -27 -130 -109
-227 -182 -98 -73 -188 -148 -202 -166 -83 -111 -51 -269 67 -343 l49 -30
1956 0 1956 0 53 29 c59 33 96 76 117 136 17 48 111 1781 100 1840 -14 73 -68
145 -140 183 -40 22 -41 22 -835 24 -608 1 -807 -1 -845 -11z m1599 -166 c14
-5 32 -20 41 -33 14 -22 11 -99 -30 -896 -25 -480 -50 -881 -55 -891 -28 -53
63 -50 -1507 -50 l-1453 0 0 258 c0 146 -5 273 -10 294 -18 64 -70 114 -133
127 -24 5 50 64 739 581 422 316 774 579 783 584 58 34 80 35 843 36 458 0
767 -4 782 -10z m-3176 -1612 l-3 -253 -120 0 c-103 0 -126 3 -161 22 -189
100 -192 358 -5 455 50 26 61 28 172 28 l119 0 -2 -252z m-589 -85 c6 -32 25
-82 41 -112 17 -30 30 -56 30 -58 0 -1 -49 -3 -110 -3 -98 0 -112 2 -131 21
-14 14 -19 30 -17 52 2 26 17 42 83 94 44 34 83 62 86 63 4 0 12 -26 18 -57z"/>
<path d="M3586 2374 c-130 -47 -199 -180 -161 -310 13 -47 27 -69 68 -109 32
-31 68 -55 93 -63 55 -16 452 -17 506 0 57 17 133 88 155 146 52 137 -18 290
-155 336 -63 22 -448 22 -506 0z m459 -164 c34 -13 59 -69 46 -104 -20 -52
-39 -56 -251 -56 -212 0 -231 4 -251 56 -12 33 12 91 43 104 31 12 380 12 413
0z"/>
</g>
</svg>
