<?xml version="1.0" standalone="no"?>
<!DOCTYPE svg PUBLIC "-//W3C//DTD SVG 20010904//EN"
 "http://www.w3.org/TR/2001/REC-SVG-20010904/DTD/svg10.dtd">
<svg version="1.0" xmlns="http://www.w3.org/2000/svg"
 width="512.000000pt" height="512.000000pt" viewBox="0 0 512.000000 512.000000"
 preserveAspectRatio="xMidYMid meet">

<g transform="translate(0.000000,512.000000) scale(0.100000,-0.100000)"
fill="#000000" stroke="none">
<path d="M2130 5109 c-113 -22 -241 -122 -293 -229 -35 -72 -47 -155 -47 -321
0 -184 18 -271 72 -350 l18 -27 -178 -4 c-192 -5 -246 -18 -356 -82 -119 -70
-234 -217 -270 -346 -24 -87 -186 -1452 -193 -1625 -7 -209 10 -326 112 -734
47 -188 85 -348 85 -356 0 -11 -11 -15 -37 -15 -43 0 -117 -31 -152 -63 -13
-12 -35 -40 -48 -61 -45 -71 -43 -124 23 -450 66 -331 76 -354 174 -410 l55
-31 1465 0 1465 0 53 29 c60 33 97 78 117 139 8 23 37 159 66 302 58 295 60
352 16 421 -13 21 -35 49 -48 61 -35 32 -109 63 -151 63 -26 0 -38 4 -38 14 0
8 36 156 79 328 109 432 116 471 115 713 -1 187 -7 245 -88 910 -54 443 -94
734 -106 775 -58 192 -243 364 -437 405 -41 9 -126 15 -216 15 l-148 0 18 28
c29 41 52 101 63 161 13 70 13 308 0 391 -28 173 -168 318 -339 350 -65 12
-787 12 -851 -1z m846 -174 c63 -19 126 -72 156 -133 22 -44 23 -58 23 -237 0
-183 -1 -192 -25 -239 -32 -62 -91 -112 -154 -131 -73 -22 -759 -22 -832 0
-63 19 -122 69 -154 131 -24 47 -25 56 -25 239 0 179 1 193 23 237 29 59 92
114 152 133 68 21 766 21 836 0z m-1356 -2420 l0 -1495 -179 0 -179 0 -91 367
c-50 203 -96 397 -103 433 -7 37 -12 144 -12 250 1 170 8 242 87 891 49 400
93 727 103 755 54 161 187 267 367 293 4 1 7 -672 7 -1494z m1708 1368 l-3
-128 -765 0 -765 0 -3 128 -3 127 771 0 771 0 -3 -127z m272 105 c119 -35 228
-141 271 -264 13 -38 47 -280 106 -762 79 -647 86 -723 87 -892 0 -107 -5
-212 -12 -250 -7 -36 -53 -230 -103 -432 l-91 -368 -179 0 -179 0 0 1495 0
1495 33 -6 c17 -3 48 -10 67 -16z m-270 -578 l0 -170 -770 0 -770 0 0 170 0
170 770 0 770 0 0 -170z m-1213 -407 l-67 -68 -67 68 -68 67 135 0 135 0 -68
-67z m510 0 l-67 -68 -67 68 -68 67 135 0 135 0 -68 -67z m510 0 l-67 -68 -67
68 -68 67 135 0 135 0 -68 -67z m-1217 -187 c0 -12 -111 -126 -122 -126 -4 0
-8 59 -8 132 l0 132 65 -64 c36 -35 65 -69 65 -74z m453 -68 l-67 -68 -68 67
-68 67 67 68 67 68 68 -67 68 -67 -67 -68z m510 0 l-67 -68 -68 67 -68 67 67
68 67 68 68 -67 68 -67 -67 -68z m442 -56 c-7 -7 -125 109 -125 122 0 6 28 39
63 74 l62 63 3 -127 c1 -70 0 -129 -3 -132z m-1205 -67 l65 -65 -68 -68 -67
-67 -67 67 -68 68 65 65 c35 36 67 65 70 65 3 0 35 -29 70 -65z m510 0 l65
-65 -68 -68 -67 -67 -67 67 -68 68 65 65 c35 36 67 65 70 65 3 0 35 -29 70
-65z m510 0 l65 -65 -68 -68 -67 -67 -67 67 -68 68 65 65 c35 36 67 65 70 65
3 0 35 -29 70 -65z m-767 -387 l-67 -68 -68 67 -68 67 67 68 67 68 68 -67 68
-67 -67 -68z m510 0 l-67 -68 -68 67 -68 67 67 68 67 68 68 -67 68 -67 -67
-68z m-1021 135 c32 -32 58 -62 58 -68 0 -6 -29 -40 -65 -75 l-65 -64 0 132
c0 73 3 132 7 132 4 0 33 -26 65 -57z m1468 -75 l0 -132 -65 64 c-36 35 -65
69 -65 74 0 12 111 126 122 126 4 0 8 -59 8 -132z m-1210 -183 l65 -65 -68
-68 -67 -67 -67 67 -68 68 65 65 c35 36 67 65 70 65 3 0 35 -29 70 -65z m510
0 l65 -65 -68 -68 -67 -67 -67 67 -68 68 65 65 c35 36 67 65 70 65 3 0 35 -29
70 -65z m510 0 l65 -65 -68 -68 -67 -67 -67 67 -68 68 65 65 c35 36 67 65 70
65 3 0 35 -29 70 -65z m-1283 -392 l-67 -68 0 135 0 135 67 -68 68 -67 -68
-67z m520 135 l63 -62 -67 -68 -67 -68 -68 67 -68 67 62 63 c34 35 67 63 72
63 6 0 39 -28 73 -62z m510 0 l63 -62 -67 -68 -67 -68 -68 67 -68 67 62 63
c34 35 67 63 72 63 6 0 39 -28 73 -62z m443 -70 l0 -133 -67 67 -68 68 65 65
c35 36 66 65 67 65 2 0 3 -60 3 -132z m-1220 -183 l64 -65 -129 0 -129 0 64
65 c35 36 65 65 65 65 0 0 30 -29 65 -65z m520 0 l64 -65 -134 0 -134 0 64 65
c35 36 67 65 70 65 3 0 35 -29 70 -65z m510 0 l64 -65 -129 0 -129 0 64 65
c35 36 65 65 65 65 0 0 30 -29 65 -65z m185 -410 l0 -170 -765 0 -765 0 -3
160 c-1 87 0 165 2 172 4 11 151 13 768 11 l763 -3 0 -170z m-1533 -575 c3
-224 4 -230 26 -252 l23 -23 719 0 719 0 23 23 c22 22 23 28 26 252 l3 230
380 0 380 0 24 -25 c15 -14 25 -36 25 -52 0 -15 -23 -145 -52 -288 -47 -235
-54 -263 -79 -287 l-27 -28 -1422 0 -1422 0 -27 28 c-25 24 -32 52 -79 287
-29 143 -52 273 -52 288 0 16 10 38 25 52 l24 25 380 0 380 0 3 -230z m1368
60 l0 -170 -600 0 -600 0 0 170 0 170 600 0 600 0 0 -170z"/>
</g>
</svg>
