<?xml version="1.0" standalone="no"?>
<!DOCTYPE svg PUBLIC "-//W3C//DTD SVG 20010904//EN"
 "http://www.w3.org/TR/2001/REC-SVG-20010904/DTD/svg10.dtd">
<svg version="1.0" xmlns="http://www.w3.org/2000/svg"
 width="512.000000pt" height="512.000000pt" viewBox="0 0 512.000000 512.000000"
 preserveAspectRatio="xMidYMid meet">
<metadata>
Created by potrace 1.16, written by Peter Selinger 2001-2019
</metadata>
<g transform="translate(0.000000,512.000000) scale(0.100000,-0.100000)"
fill="#000000" stroke="none">
<path d="M2448 4440 c-253 -46 -466 -227 -548 -465 -48 -140 -46 -316 6 -458
94 -259 111 -334 121 -521 8 -156 8 -156 143 -156 l100 0 0 -25 0 -25 -437 0
c-438 0 -438 0 -488 -24 -55 -25 -119 -90 -141 -141 -22 -55 -247 -1662 -239
-1715 13 -88 65 -160 147 -205 l53 -30 1369 -3 c1505 -3 1427 -6 1514 58 50
36 98 117 107 180 7 54 -217 1661 -239 1715 -22 51 -86 116 -141 141 -50 24
-50 24 -487 24 l-438 0 0 25 0 25 100 0 c137 0 135 -2 143 171 6 160 32 280
92 429 55 134 69 202 68 321 -2 191 -65 341 -203 480 -93 93 -171 140 -295
179 -79 24 -232 34 -307 20z m265 -165 c228 -70 388 -281 390 -514 1 -91 -13
-152 -63 -275 -50 -123 -78 -237 -92 -378 l-12 -118 -377 0 -377 0 -7 78 c-14
158 -43 274 -123 493 -77 206 -28 415 132 575 142 142 347 196 529 139z m-13
-1482 c0 -27 -7 -203 -15 -393 -8 -190 -15 -369 -15 -397 l0 -53 -110 0 -110
0 0 53 c0 28 -7 207 -15 397 -8 190 -15 366 -15 393 l0 47 140 0 140 0 0 -47z
m-420 -152 c0 -5 -35 -10 -78 -13 -183 -11 -339 -142 -387 -323 -22 -87 -22
-773 0 -860 34 -127 120 -230 242 -288 l68 -32 435 0 435 0 68 32 c79 38 163
114 200 181 53 98 57 134 57 537 0 394 -4 435 -51 526 -66 131 -224 229 -369
229 -35 0 -60 4 -60 11 0 7 132 9 423 7 462 -3 462 -3 501 -63 13 -20 47 -235
133 -836 l115 -809 -19 -37 c-10 -20 -31 -46 -46 -57 -28 -21 -30 -21 -1387
-21 -1357 0 -1359 0 -1387 21 -15 11 -36 37 -47 58 -18 36 -18 40 8 219 14
100 26 185 26 190 0 4 61 7 135 7 122 0 137 2 155 20 25 25 26 71 1 101 -18
23 -27 24 -143 27 l-124 4 5 41 6 42 136 5 c154 6 169 12 169 69 0 69 -26 81
-169 81 -120 0 -117 -2 -105 59 l7 31 129 0 c124 0 130 1 153 25 14 13 25 36
25 50 0 14 -11 37 -25 50 -23 24 -30 25 -146 25 -106 0 -120 2 -115 16 3 9 6
29 6 45 l0 29 125 0 c73 0 135 5 150 12 43 19 51 89 13 121 -17 14 -40 17
-139 17 -91 0 -119 3 -119 13 0 47 43 320 56 355 17 46 45 70 97 82 45 11 837
12 837 1z m4 -238 c3 -49 8 -185 12 -303 6 -225 13 -274 44 -290 11 -6 106
-10 220 -10 114 0 209 4 220 10 31 16 38 65 44 290 4 118 9 254 12 303 l7 87
51 -6 c124 -14 228 -97 261 -207 22 -74 22 -730 0 -804 -23 -78 -74 -136 -152
-175 l-68 -33 -375 0 -375 0 -68 33 c-78 39 -129 97 -152 175 -22 74 -22 730
0 804 36 122 147 201 296 212 14 1 17 -14 23 -86z"/>
<path d="M2406 4199 c-146 -59 -267 -202 -282 -335 -6 -44 -3 -55 15 -73 26
-26 82 -28 104 -3 8 9 23 40 33 67 35 103 103 171 213 211 57 21 81 47 81 89
0 65 -67 83 -164 44z"/>
</g>
</svg>
