<?xml version="1.0" standalone="no"?>
<!DOCTYPE svg PUBLIC "-//W3C//DTD SVG 20010904//EN"
 "http://www.w3.org/TR/2001/REC-SVG-20010904/DTD/svg10.dtd">
<svg version="1.0" xmlns="http://www.w3.org/2000/svg"
 width="512.000000pt" height="512.000000pt" viewBox="0 0 512.000000 512.000000"
 preserveAspectRatio="xMidYMid meet">

<g transform="translate(0.000000,512.000000) scale(0.100000,-0.100000)"
fill="#000000" stroke="none">
<path d="M1788 5106 c-114 -31 -223 -144 -247 -257 -7 -31 -11 -196 -11 -429
l0 -378 -136 -4 -136 -3 -29 -33 -29 -32 0 -1011 c0 -1115 -3 -1061 63 -1198
44 -91 167 -214 260 -259 89 -43 173 -62 278 -62 l86 0 5 -173 c4 -158 7 -178
30 -228 14 -30 39 -71 57 -91 30 -35 139 -98 168 -98 11 0 13 -67 13 -367 0
-215 4 -383 10 -404 21 -76 11 -74 390 -74 379 0 369 -2 390 74 6 21 10 189
10 404 0 300 2 367 13 367 29 0 138 63 168 98 18 20 43 61 57 91 23 50 26 70
30 228 l5 173 86 0 c104 0 193 20 280 63 91 44 215 168 258 258 60 124 63 151
63 539 l0 352 -29 29 c-46 45 -123 39 -153 -14 -10 -16 -14 -117 -18 -382 l-5
-360 -29 -60 c-38 -77 -114 -153 -191 -191 l-60 -29 -875 0 -875 0 -60 29
c-77 38 -158 120 -193 193 l-27 58 -3 958 -2 957 1160 0 1160 0 0 -166 c0
-129 3 -173 15 -199 30 -61 107 -74 156 -26 l29 29 0 246 0 246 -29 32 -29 33
-136 3 -135 4 -3 406 -3 407 -28 57 c-36 73 -101 139 -175 175 l-57 28 -745 2
c-581 2 -755 -1 -792 -11z m1528 -212 c15 -11 37 -33 48 -48 20 -26 21 -41 24
-417 l3 -389 -831 0 -830 0 0 374 c0 389 2 410 43 455 48 52 29 51 799 48 706
-2 717 -2 744 -23z m-291 -3610 c0 -163 -6 -189 -54 -221 -24 -16 -60 -18
-407 -18 -412 0 -415 0 -451 54 -14 21 -18 55 -21 168 -2 79 -2 150 2 158 5
13 62 15 468 13 l463 -3 0 -151z m-275 -764 l0 -320 -190 0 -190 0 0 320 0
320 190 0 190 0 0 -320z"/>
<path d="M2194 4691 c-12 -5 -31 -22 -43 -37 -19 -24 -21 -39 -21 -155 0 -141
8 -172 51 -195 52 -27 115 -8 137 41 7 16 12 76 12 155 0 127 0 130 -27 160
-30 32 -75 45 -109 31z"/>
<path d="M2854 4691 c-12 -5 -31 -22 -43 -37 -19 -24 -21 -39 -21 -155 0 -141
8 -172 51 -195 52 -27 115 -8 137 41 7 16 12 76 12 155 0 127 0 130 -27 160
-30 32 -75 45 -109 31z"/>
<path d="M2355 3581 c-12 -5 -26 -15 -32 -22 -18 -23 -413 -939 -413 -959 0
-33 23 -71 51 -86 21 -10 68 -14 184 -14 141 0 155 -2 155 -17 0 -10 -11 -115
-25 -233 -31 -270 -31 -263 4 -302 24 -27 36 -33 69 -33 26 0 48 7 62 20 23
20 751 909 783 955 21 30 22 62 3 99 -24 45 -52 51 -241 51 -96 0 -175 2 -175
4 0 3 41 98 90 212 53 122 90 221 90 240 0 20 -9 44 -24 61 l-24 28 -269 2
c-147 1 -277 -2 -288 -6z m321 -268 c-18 -43 -61 -142 -95 -221 -57 -131 -61
-145 -51 -176 21 -66 35 -71 207 -74 85 -2 153 -7 151 -11 -10 -24 -393 -481
-396 -472 -2 6 1 50 7 98 17 139 15 178 -13 210 -24 28 -24 28 -170 31 -80 2
-146 7 -146 10 0 4 66 159 146 345 l147 337 123 0 123 0 -33 -77z"/>
<path d="M3790 3163 c-55 -20 -81 -82 -55 -136 30 -63 107 -77 156 -28 33 33
38 75 14 120 -19 38 -75 59 -115 44z"/>
</g>
</svg>
