<?xml version="1.0" standalone="no"?>
<!DOCTYPE svg PUBLIC "-//W3C//DTD SVG 20010904//EN"
 "http://www.w3.org/TR/2001/REC-SVG-20010904/DTD/svg10.dtd">
<svg version="1.0" xmlns="http://www.w3.org/2000/svg"
 width="512.000000pt" height="512.000000pt" viewBox="0 0 512.000000 512.000000"
 preserveAspectRatio="xMidYMid meet">

<g transform="translate(0.000000,512.000000) scale(0.100000,-0.100000)"
fill="#000000" stroke="none">
<path d="M2969 5101 c-22 -17 -24 -29 -29 -123 l-5 -103 -178 -5 c-173 -5
-179 -6 -198 -29 -26 -32 -24 -74 5 -108 l24 -28 176 -3 176 -4 -2 -171 -3
-172 -165 -2 c-174 -3 -200 -9 -219 -50 -18 -39 -13 -63 18 -94 l29 -29 171 0
171 0 0 -98 c0 -90 2 -100 23 -120 35 -33 89 -30 120 8 l26 30 198 0 c215 0
273 9 372 57 80 39 98 95 48 151 -21 23 -90 32 -102 12 -3 -5 -35 -19 -71 -30
-57 -17 -94 -20 -255 -20 l-189 0 0 361 0 362 203 -5 c177 -5 209 -8 259 -27
120 -46 211 -168 225 -301 10 -96 22 -105 161 -114 338 -20 570 -129 626 -294
20 -58 20 -167 1 -222 -72 -205 -356 -338 -875 -410 -268 -38 -572 -59 -1230
-85 -801 -32 -1139 -62 -1455 -127 -468 -96 -724 -271 -785 -537 -19 -82 -8
-250 22 -332 52 -142 100 -196 163 -185 69 13 83 75 35 159 -83 148 -79 340 9
451 122 154 382 254 811 315 280 40 558 59 1225 86 478 20 699 32 915 51 827
72 1231 247 1331 576 17 56 21 89 17 177 -3 100 -6 112 -40 183 -71 143 -221
252 -429 312 -76 22 -139 33 -295 52 -40 5 -42 7 -53 51 -41 162 -184 311
-350 364 -56 18 -98 22 -279 27 l-213 4 -29 29 c-34 34 -77 38 -111 10z"/>
<path d="M1981 4811 c-19 -19 -147 -277 -157 -317 -7 -27 19 -79 43 -89 10 -4
46 -10 81 -14 l62 -6 -35 -73 c-19 -41 -35 -87 -35 -103 0 -68 92 -105 138
-56 33 35 152 294 152 331 0 52 -37 79 -115 84 -36 2 -65 5 -65 7 0 1 16 36
35 78 41 90 43 115 10 151 -30 32 -85 36 -114 7z"/>
<path d="M1896 2989 c-322 -35 -625 -186 -855 -425 -194 -201 -318 -439 -366
-704 -9 -52 -18 -100 -20 -106 -2 -5 -23 -16 -46 -23 -154 -46 -342 -192 -446
-346 -116 -172 -174 -388 -159 -584 9 -104 33 -164 89 -219 74 -73 90 -76 371
-82 l249 -5 14 -55 c62 -249 306 -440 563 -440 260 0 502 185 567 433 l18 67
732 0 c439 0 742 4 757 10 34 12 47 42 56 121 16 143 107 270 238 332 62 30
75 32 173 32 101 0 108 -1 181 -38 87 -42 152 -107 193 -190 121 -249 -34
-543 -312 -590 -84 -15 -166 0 -264 47 -80 39 -96 39 -136 3 -16 -14 -23 -32
-23 -58 0 -45 35 -79 120 -117 260 -115 564 -29 724 205 161 237 132 539 -73
743 -117 116 -248 170 -411 170 -278 0 -512 -192 -574 -472 l-6 -28 -746 0
-745 0 -24 -25 c-18 -17 -25 -35 -25 -62 0 -103 -60 -234 -139 -304 -207 -184
-527 -120 -652 129 -32 64 -34 72 -34 177 0 103 2 114 32 178 65 137 198 227
349 235 87 5 172 -13 230 -49 67 -41 144 -7 144 64 0 106 -266 188 -472 146
-164 -34 -320 -155 -396 -308 -23 -46 -42 -88 -42 -95 0 -6 -5 -28 -11 -48
l-10 -38 -222 0 c-239 0 -254 3 -291 53 -18 25 -21 42 -20 140 1 172 44 309
138 440 98 138 222 226 394 282 54 17 88 34 97 48 8 12 19 63 25 112 23 191
98 395 201 546 54 80 194 226 273 285 144 108 314 186 496 226 102 22 119 23
625 23 507 0 523 -1 625 -23 232 -51 424 -152 591 -310 158 -150 217 -241 348
-536 39 -87 71 -160 71 -162 0 -2 -308 -4 -685 -4 l-685 0 0 151 0 151 -29 29
c-31 31 -55 36 -94 18 -40 -18 -47 -50 -47 -204 l0 -145 -407 0 c-454 0 -459
1 -516 69 -52 62 -48 129 14 259 72 149 191 243 354 277 57 12 182 15 688 15
l619 0 29 29 c41 42 34 104 -15 130 -16 9 -194 11 -676 9 -648 -4 -656 -4
-730 -27 -117 -35 -205 -87 -284 -166 -77 -76 -120 -142 -169 -257 -27 -63
-31 -85 -31 -163 -1 -71 4 -100 20 -136 26 -55 85 -123 135 -155 90 -56 30
-54 1433 -54 1393 0 1351 1 1486 -53 99 -41 170 -88 250 -167 42 -41 93 -103
114 -137 79 -132 125 -318 111 -453 -8 -76 -22 -101 -75 -135 -67 -42 -63
-129 8 -156 55 -21 158 45 202 131 43 84 50 267 15 417 -62 268 -243 501 -483
623 -87 44 -164 69 -271 89 l-93 17 -89 198 c-106 237 -137 299 -199 391 -206
303 -515 507 -890 587 -87 19 -137 21 -595 23 -275 2 -536 -1 -579 -6z"/>
<path d="M1237 746 c-108 -40 -146 -159 -82 -257 29 -45 79 -69 143 -69 90 0
162 72 162 163 0 120 -114 203 -223 163z"/>
<path d="M3764 741 c-116 -53 -137 -212 -37 -288 51 -39 144 -45 192 -11 19
12 43 35 54 49 24 33 33 106 18 151 -20 61 -100 118 -165 118 -12 0 -40 -9
-62 -19z"/>
</g>
</svg>
