<svg xmlns="http://www.w3.org/2000/svg" xmlns:xlink="http://www.w3.org/1999/xlink" width="40" height="40" viewBox="0 0 40 40">
    <defs>
        <path id="prefix__a" d="M5.376 10.119L2.071 6.814c-.178-.178-.42-.278-.671-.278-.252 0-.493.1-.671.278-.372.372-.372.972 0 1.343l3.98 3.981c.372.372.972.372 1.343 0L16.13 2.062c.371-.372.371-.972 0-1.343-.178-.178-.42-.279-.672-.279-.252 0-.493.1-.671.279l-9.41 9.4z"/>
    </defs>
    <g fill="none" fill-rule="evenodd">
        <circle cx="20" cy="20" r="20" fill="#26A0F4"/>
        <g transform="translate(11.571 13.571)">
            <mask id="prefix__b" fill="#fff">
                <use xlink:href="#prefix__a"/>
            </mask>
            <g fill="#FFF" mask="url(#prefix__b)">
                <path d="M0 0H22.857V22.857H0z" transform="translate(-3 -5)"/>
            </g>
        </g>
    </g>
</svg>
