<svg xmlns="http://www.w3.org/2000/svg" width="24" height="24" viewBox="0 0 24 24">
    <g fill="none" fill-rule="evenodd">
        <g fill="#6D7275">
            <g>
                <g>
                    <path d="M17.574 11.285L7.504 1.353C7.276 1.127 6.966 1 6.643 1c-.323 0-.633.127-.862.353-.476.47-.476 1.229 0 1.7l2.053 2.024-6.293 6.208c-.721.71-.721 1.856 0 2.555l6.721 6.63c.354.35.831.53 1.295.53.465 0 .941-.18 1.296-.53l6.721-6.63c.721-.699.721-1.844 0-2.555zm-13.87 1.277L9.557 6.79l5.854 5.773H3.704zm16.852 1.808s-2.444 2.616-2.444 4.22c0 1.325 1.1 2.41 2.444 2.41C21.9 21 23 19.915 23 18.59c0-1.604-2.444-4.22-2.444-4.22z" transform="translate(-24 -592) translate(0 584) translate(24 8)"/>
                </g>
            </g>
        </g>
    </g>
</svg>
