<svg xmlns="http://www.w3.org/2000/svg" width="24" height="24" viewBox="0 0 24 24">
    <g fill="none" fill-rule="evenodd">
        <g fill="#6D7275">
            <g>
                <g>
                    <g>
                        <path d="M7.187 7.005c.45 0 .67-.54.35-.85l-2.29-2.3c-.2-.2-.51-.2-.71 0l-2.29 2.3c-.31.31-.09.85.36.85h1.29v10h-1.29c-.45 0-.67.54-.35.85l2.29 2.29c.2.2.51.2.71 0l2.29-2.29c.31-.31.09-.85-.36-.85h-1.29v-10h1.29zm3.71 0h10c.55 0 1-.45 1-1s-.45-1-1-1h-10c-.55 0-1 .45-1 1s.45 1 1 1zm10 10h-10c-.55 0-1 .45-1 1s.45 1 1 1h10c.55 0 1-.45 1-1s-.45-1-1-1zm0-6h-10c-.55 0-1 .45-1 1s.45 1 1 1h10c.55 0 1-.45 1-1s-.45-1-1-1z" transform="translate(-240 -592) translate(0 584) translate(216) translate(24 8)"/>
                    </g>
                </g>
            </g>
        </g>
    </g>
</svg>
