<svg xmlns="http://www.w3.org/2000/svg" width="24" height="24" viewBox="0 0 24 24">
    <g fill="none" fill-rule="evenodd">
        <g fill="#6D7275">
            <g>
                <g>
                    <g>
                        <path d="M2.5 6c0 .83.67 1.5 1.5 1.5h3.5V18c0 .83.67 1.5 1.5 1.5s1.5-.67 1.5-1.5V7.5H14c.83 0 1.5-.67 1.5-1.5s-.67-1.5-1.5-1.5H4c-.83 0-1.5.67-1.5 1.5zM20 9.5h-6c-.83 0-1.5.67-1.5 1.5s.67 1.5 1.5 1.5h1.5V18c0 .83.67 1.5 1.5 1.5s1.5-.67 1.5-1.5v-5.5H20c.83 0 1.5-.67 1.5-1.5s-.67-1.5-1.5-1.5z" transform="translate(-168 -592) translate(0 584) translate(144) translate(24 8)"/>
                    </g>
                </g>
            </g>
        </g>
    </g>
</svg>
