<?xml version="1.0" standalone="no"?>
<!DOCTYPE svg PUBLIC "-//W3C//DTD SVG 20010904//EN"
 "http://www.w3.org/TR/2001/REC-SVG-20010904/DTD/svg10.dtd">
<svg version="1.0" xmlns="http://www.w3.org/2000/svg"
 width="512.000000pt" height="512.000000pt" viewBox="0 0 512.000000 512.000000"
 preserveAspectRatio="xMidYMid meet">

<g transform="translate(0.000000,512.000000) scale(0.100000,-0.100000)"
fill="#000000" stroke="none">
<path d="M4690 4791 c-44 -14 -84 -38 -117 -73 -64 -67 -63 -50 -63 -798 0
-748 -1 -731 63 -798 63 -66 95 -76 265 -80 l152 -4 0 219 c0 121 -3 517 -7
881 l-6 662 -131 -1 c-72 0 -142 -4 -156 -8z"/>
<path d="M1338 3900 c-18 -13 -27 -33 -32 -66 -3 -26 -16 -62 -28 -81 -23 -38
-85 -72 -129 -73 -15 0 -38 -9 -53 -21 l-26 -20 0 -479 0 -479 26 -20 c15 -12
38 -21 52 -21 41 0 110 -39 132 -74 11 -19 23 -54 26 -80 5 -33 14 -53 32 -66
24 -20 48 -20 1249 -20 l1225 0 29 29 c21 21 29 39 29 64 0 37 31 90 70 119
14 10 47 22 75 27 34 6 57 18 72 36 l23 26 0 459 0 458 -26 31 c-18 22 -35 31
-55 31 -44 0 -91 23 -121 58 -14 17 -28 36 -30 41 -2 6 -24 4 -58 -5 -42 -11
-134 -14 -405 -14 l-351 0 -57 -58 -58 -59 65 -65 c86 -88 141 -199 163 -326
14 -83 14 -101 0 -184 -29 -168 -117 -308 -254 -402 -256 -175 -601 -124 -802
119 -140 169 -170 418 -77 629 l25 56 -24 36 c-14 20 -27 51 -31 69 -12 63 12
103 134 228 l116 117 -451 0 c-432 0 -451 -1 -475 -20z"/>
<path d="M650 835 l-515 -515 961 0 960 0 34 35 c26 27 34 44 34 71 0 33 -25
60 -445 480 -414 414 -447 444 -479 444 -32 0 -68 -34 -550 -515z"/>
</g>
</svg>
