<svg xmlns="http://www.w3.org/2000/svg" width="356.6" height="65.9" viewBox="0 0 356.6 65.9" xml:space="preserve"><path d="m44.5 47 3.3-14.1L50.5 47h-6zM19.1 34.5c0 4-1.6 6.7-6.5 8.2V30.6c1-.3 1.9-.5 2.9-.5 2.6 0 3.6 2 3.6 4.4zm99 9.9 3.8-17.3 3.6 17.3h-7.4zM85.8 19.6c4.1 0 5.6 2.2 5.6 5.9 0 4-2.1 7.4-6.6 8.7V19.6h1zM327.9 33c0-1.2.9-1.9 2.4-1.9 2.9 0 8.1 3 11.3 5.5V24.4c-3.8-2.6-8.5-4.5-13.6-4.5-8.3 0-13.4 4.9-13.4 13.3 0 14.3 15.8 14.3 15.8 19.1 0 1.5-.9 2.2-3.2 2.2-4.7 0-10.6-3.2-12.6-5.1v12.9c3.8 2.2 9.3 3.6 14.1 3.6 9.5 0 15-5.3 15-13.8 0-13.9-15.8-14.6-15.8-19.1zm-295.5-.3c0-10-6.2-14-14.4-14-5.5 0-11.9 1.8-18 4.7v41.3h12.6v-9.9c10.6-2.1 19.8-10 19.8-22.1zm171-16.4c5.8 0 8.5 6 8.5 16.6s-2.7 16.6-8.5 16.6-8.5-6-8.5-16.6 2.7-16.6 8.5-16.6zM26 64.7h13.5l1.9-6.7H53l1.6 6.7h14.1L54.4 10.4c-4.1.4-8.7 1.1-12.1 2.1L26 64.7zM284.5 10c-3.4-.7-7.3-1.4-10-1.6v56.3h12.9V41.5l13.7 23.2h9.9V15.5c-4.1-1.1-8.1-1.9-12.4-2.7V37l-14.1-27zM105.9 24.3c0-11.8-6.6-18.4-20.3-18.4-4.4 0-10.3.7-15 2.1v56.7h14.3V49.4c12.1-3.7 21-12.5 21-25.1zm139.2 5.1V4.8c-3.6-.7-10.8-1.4-14.4-1.5v61.4h14.4v-22h9.5v22H269v-57c-4.5-.8-10-1.5-14.4-1.9v23.6h-9.5zM97.9 64.7h14.8l2.2-8.5h13.3l2.5 8.5h15.1l-17-62.3c-3.6 0-9.5.4-12.8.8L97.9 64.7zM161.4 47c0 3.4-1.9 4.9-4.8 4.9-1.5 0-3.2-.4-4.9-1.1v14c2.9 1 5.1 1.1 8.1 1.1 8.4 0 16.5-4.3 16.5-18V1c-4.1-.3-10.7-.3-14.8 0v46h-.1zm42 18.9c14.7 0 23.8-12.9 23.8-33 0-18.3-7.8-33-24.2-33-14.4 0-23.3 13.2-23.3 33-.1 21.5 9 33 23.7 33zM356.6 33c0 1.6-.6 2.9-1.7 4.1s-2.5 1.7-4.1 1.7-3-.6-4.1-1.7c-1.1-1.1-1.7-2.5-1.7-4 0-1.6.6-2.9 1.7-4.1 1.1-1.1 2.5-1.7 4.1-1.7s3 .6 4.1 1.7c1.1 1.1 1.7 2.4 1.7 4zm-.7.1c0-1.5-.5-2.7-1.5-3.6s-2.2-1.5-3.7-1.5c-1.4 0-2.7.5-3.6 1.5-1 1-1.5 2.2-1.5 3.6s.5 2.6 1.5 3.6 2.2 1.4 3.7 1.4c1.4 0 2.7-.5 3.6-1.5s1.5-2.1 1.5-3.5zm-1.7 3.1h-2l-1.8-2.2h-.4v2.2h-1.7v-6.6h2.5c.9 0 1.6.2 2.1.6s.7.9.7 1.6c0 .4-.1.8-.3 1.1-.2.3-.6.6-1 .8l1.9 2.5zm-3.6-5.3h-.6v1.9h.6c.4 0 .7-.1.9-.3.2-.2.3-.4.3-.7s-.1-.5-.3-.7c-.3-.1-.5-.2-.9-.2z" fill="red"/></svg>